<svg
    xmlns="http://www.w3.org/2000/svg"
    viewBox="0 0 20 20"
    id="vector">
    <path
        id="path"
        d="M 8 6 L 6 6 L 6 8 L 8 8 Z M 14 12 L 12 12 L 12 14 L 14 14 Z M 18 16 L 16 16 L 16 18 L 18 18 Z M 8 12 L 6 12 L 6 14 L 8 14 Z M 18 2 L 16 2 L 16 4 L 18 4 Z M 6 4 L 4 4 L 4 6 L 6 6 Z M 12 10 L 10 10 L 10 12 L 12 12 Z M 16 14 L 14 14 L 14 16 L 16 16 Z M 6 14 L 4 14 L 4 16 L 6 16 Z M 16 4 L 14 4 L 14 6 L 16 6 Z M 4 2 L 2 2 L 2 4 L 4 4 Z M 10 8 L 8 8 L 8 10 L 10 10 Z M 4 16 L 2 16 L 2 18 L 4 18 Z M 14 6 L 12 6 L 12 8 L 14 8 Z"
        fill="#000000"
        stroke-width="1"
        fill-rule="evenodd" />
</svg>